<?xml version="1.0" encoding="UTF-8" standalone="no"?>
<svg
   width="64pt"
   height="64pt"
   viewBox="0 0 22.577778 22.577778"
   version="1.1"
   id="svg831"
   inkscape:version="1.1.2 (1:1.1+202202050950+0a00cf5339)"
   sodipodi:docname="10 - Grocery Bag.svg"
   inkscape:export-filename="/media/taufikramadhan/Data/Tr Design Studio/Project Design/TR Creative Design/Icon Design/Project Hiring/Icon Icons/019 - Commerce And Shopping/5 - Send/10 - Grocery Bag.png"
   inkscape:export-xdpi="576"
   inkscape:export-ydpi="576"
   xmlns:inkscape="http://www.inkscape.org/namespaces/inkscape"
   xmlns:sodipodi="http://sodipodi.sourceforge.net/DTD/sodipodi-0.dtd"
   xmlns="http://www.w3.org/2000/svg"
   xmlns:svg="http://www.w3.org/2000/svg"
   xmlns:rdf="http://www.w3.org/1999/02/22-rdf-syntax-ns#"
   xmlns:cc="http://creativecommons.org/ns#"
   xmlns:dc="http://purl.org/dc/elements/1.1/">
  <defs
     id="defs825">
    <pattern
       id="EMFhbasepattern"
       patternUnits="userSpaceOnUse"
       width="6"
       height="6"
       x="0"
       y="0" />
    <pattern
       id="EMFhbasepattern-9"
       patternUnits="userSpaceOnUse"
       width="6"
       height="6"
       x="0"
       y="0" />
    <pattern
       id="EMFhbasepattern-0"
       patternUnits="userSpaceOnUse"
       width="6"
       height="6"
       x="0"
       y="0" />
    <pattern
       id="EMFhbasepattern-7"
       patternUnits="userSpaceOnUse"
       width="6"
       height="6"
       x="0"
       y="0" />
    <pattern
       id="EMFhbasepattern-2"
       patternUnits="userSpaceOnUse"
       width="6"
       height="6"
       x="0"
       y="0" />
    <pattern
       id="EMFhbasepattern-98"
       patternUnits="userSpaceOnUse"
       width="6"
       height="6"
       x="0"
       y="0" />
    <pattern
       id="EMFhbasepattern-6"
       patternUnits="userSpaceOnUse"
       width="6"
       height="6"
       x="0"
       y="0" />
    <pattern
       id="EMFhbasepattern-01"
       patternUnits="userSpaceOnUse"
       width="6"
       height="6"
       x="0"
       y="0" />
    <pattern
       id="EMFhbasepattern-07"
       patternUnits="userSpaceOnUse"
       width="6"
       height="6"
       x="0"
       y="0" />
    <pattern
       id="EMFhbasepattern-8"
       patternUnits="userSpaceOnUse"
       width="6"
       height="6"
       x="0"
       y="0" />
    <pattern
       id="EMFhbasepattern-4"
       patternUnits="userSpaceOnUse"
       width="6"
       height="6"
       x="0"
       y="0" />
    <pattern
       id="EMFhbasepattern-40"
       patternUnits="userSpaceOnUse"
       width="6"
       height="6"
       x="0"
       y="0" />
    <pattern
       id="EMFhbasepattern-08"
       patternUnits="userSpaceOnUse"
       width="6"
       height="6"
       x="0"
       y="0" />
    <pattern
       id="EMFhbasepattern-04"
       patternUnits="userSpaceOnUse"
       width="6"
       height="6"
       x="0"
       y="0" />
    <pattern
       id="EMFhbasepattern-014"
       patternUnits="userSpaceOnUse"
       width="6"
       height="6"
       x="0"
       y="0" />
    <pattern
       id="EMFhbasepattern-27"
       patternUnits="userSpaceOnUse"
       width="6"
       height="6"
       x="0"
       y="0" />
    <pattern
       id="EMFhbasepattern-09"
       patternUnits="userSpaceOnUse"
       width="6"
       height="6"
       x="0"
       y="0" />
    <pattern
       id="EMFhbasepattern-5"
       patternUnits="userSpaceOnUse"
       width="6"
       height="6"
       x="0"
       y="0" />
    <pattern
       id="EMFhbasepattern-018"
       patternUnits="userSpaceOnUse"
       width="6"
       height="6"
       x="0"
       y="0" />
  </defs>
  <sodipodi:namedview
     id="base"
     pagecolor="#ffffff"
     bordercolor="#666666"
     borderopacity="1.0"
     inkscape:pageopacity="0.0"
     inkscape:pageshadow="2"
     inkscape:zoom="4.4249417"
     inkscape:cx="28.813939"
     inkscape:cy="50.848128"
     inkscape:document-units="pt"
     inkscape:current-layer="layer1"
     showgrid="false"
     units="pt"
     inkscape:window-width="1366"
     inkscape:window-height="705"
     inkscape:window-x="0"
     inkscape:window-y="31"
     inkscape:window-maximized="1"
     inkscape:pagecheckerboard="true"
     inkscape:showpageshadow="false"
     inkscape:object-paths="true"
     inkscape:snap-intersection-paths="true"
     inkscape:snap-smooth-nodes="true"
     inkscape:snap-midpoints="true"
     showguides="true"
     inkscape:snap-bbox="true"
     inkscape:bbox-nodes="true"
     inkscape:snap-nodes="false"
     inkscape:snap-global="true"
     inkscape:document-rotation="0">
    <inkscape:grid
       type="xygrid"
       id="grid1378" />
    <sodipodi:guide
       position="0.97013831,21.607643"
       orientation="78.000048,0"
       id="guide1380"
       inkscape:locked="false" />
    <sodipodi:guide
       position="0.97013831,0.97013129"
       orientation="0,78.000005"
       id="guide1382"
       inkscape:locked="false" />
    <sodipodi:guide
       position="21.607639,0.97013129"
       orientation="-78.000048,0"
       id="guide1384"
       inkscape:locked="false" />
    <sodipodi:guide
       position="21.607639,21.607643"
       orientation="0,-78.000005"
       id="guide1386"
       inkscape:locked="false" />
  </sodipodi:namedview>
  <metadata
     id="metadata828">
    <rdf:RDF>
      <cc:Work
         rdf:about="">
        <dc:format>image/svg+xml</dc:format>
        <dc:type
           rdf:resource="http://purl.org/dc/dcmitype/StillImage" />
      </cc:Work>
    </rdf:RDF>
  </metadata>
  <g
     inkscape:label="Icon"
     inkscape:groupmode="layer"
     id="layer1"
     transform="translate(0,-274.42223)">
    <g
       id="g21857"
       style="display:inline;stroke-width:0.800715"
       transform="matrix(1.2488844,0,0,1.2488844,-37.380583,-74.634735)">
      <g
         id="g291395"
         style="display:inline;stroke-width:0.800715">
        <path
           style="color:#000000;fill:#d0e2ee;stroke-width:0.800715;stroke-linecap:round;stroke-linejoin:round;stroke-miterlimit:1.5;-inkscape-stroke:none"
           d="m 41.054687,284.46875 a 0.26460996,0.26460996 0 0 0 -0.324218,0.18555 l -1.25,4.66992 a 0.26460996,0.26460996 0 0 0 0.279297,0.33203 l 3.722656,-0.34961 a 0.26460996,0.26460996 0 0 0 0.232422,-0.19531 l 0.453125,-1.72461 0.453125,-1.68945 a 0.26460996,0.26460996 0 0 0 -0.1875,-0.32422 z"
           id="path2085266" />
        <path
           id="path249375"
           style="color:#000000;fill:#a8c2e1;fill-opacity:1;stroke-width:0.800715;stroke-linecap:round;stroke-linejoin:round;stroke-miterlimit:1.5;-inkscape-stroke:none"
           d="m 40.996466,284.45967 a 0.26460996,0.26460996 0 0 0 -0.266133,0.19482 l -0.267169,0.99788 2.911967,0.77928 a 0.26460996,0.26460996 0 0 1 0.187585,0.32401 l -0.453202,1.6893 -0.24133,0.91932 0.614434,-0.0579 a 0.26460996,0.26460996 0 0 0 0.232027,-0.19482 l 0.453202,-1.72496 0.453202,-1.68931 a 0.26460996,0.26460996 0 0 0 -0.187584,-0.32452 l -3.378605,-0.90382 a 0.26460996,0.26460996 0 0 0 -0.05839,-0.009 z" />
        <path
           id="path198635"
           style="fill:#a8c2e1;fill-opacity:1;stroke-width:3.02632;stroke-linecap:round;stroke-linejoin:round;stroke-miterlimit:1.5"
           d="m 154.86523,27.806641 c -0.69903,0.0014 -1.36784,0.297983 -1.83203,0.826171 l -0.64843,0.716797 -0.0586,-0.06641 c -0.37492,-0.428416 -0.84017,-0.72907 -1.33984,-0.904297 l -1.76953,6.609375 a 1.0001006,1.0001006 0 0 0 1.05664,1.25586 l 14.07031,-1.322266 a 1.0001006,1.0001006 0 0 0 0.87695,-0.736328 l 1.39258,-5.298828 c -1.24794,-0.963285 -3.12694,-0.866903 -4.23437,0.398437 l -0.0664,0.07227 -0.0723,-0.07227 c -1.26543,-1.445971 -3.54902,-1.445971 -4.81445,0 l -0.0586,0.06641 -0.66407,-0.716796 c -0.46212,-0.52286 -1.12499,-0.825983 -1.83007,-0.826172 z"
           transform="matrix(0.26458334,0,0,0.26458334,0,280.06666)" />
        <path
           style="color:#000000;fill:#ff7247;stroke-width:0.800715;stroke-linecap:round;stroke-linejoin:round;stroke-miterlimit:1.5;-inkscape-stroke:none"
           d="m 38.298828,282.08398 c -0.583298,0.0251 -0.950009,0.14092 -1.1875,0.31836 -0.237491,0.17745 -0.32908,0.42844 -0.28125,0.63477 l 1.435547,6.19726 a 0.26460996,0.26460996 0 0 0 0.511719,0.0176 l 0.40625,-1.33593 a 0.26460996,0.26460996 0 0 0 0.0078,-0.043 l 0.654297,-4.96875 c 0.02726,-0.2071 -0.08433,-0.44708 -0.335937,-0.60352 -0.251605,-0.15644 -0.627666,-0.24186 -1.210938,-0.2168 z"
           id="path2085272" />
        <path
           id="path236075"
           style="color:#000000;fill:#ff531f;fill-opacity:1;stroke-width:0.800715;stroke-linecap:round;stroke-linejoin:round;stroke-miterlimit:1.5;-inkscape-stroke:none"
           d="m 38.508245,282.07946 c -0.0666,-2.5e-4 -0.136382,0.002 -0.209291,0.005 -0.583297,0.0251 -0.950031,0.14088 -1.187524,0.31832 -0.146764,0.10967 -0.237548,0.24758 -0.274402,0.38551 0.225616,-0.0956 0.526682,-0.15719 0.93276,-0.17467 0.583274,-0.0251 0.959175,0.0601 1.210778,0.21653 0.251608,0.15644 0.363159,0.39648 0.335899,0.60358 l -0.654225,4.96869 a 0.26460996,0.26460996 0 0 1 -0.0078,0.0429 l -0.287319,0.94465 a 0.26460996,0.26460996 0 0 0 0.410311,-0.13746 l 0.406175,-1.33636 a 0.26460996,0.26460996 0 0 0 0.0078,-0.0429 l 0.654225,-4.96869 c 0.02726,-0.2071 -0.08429,-0.44714 -0.335899,-0.60358 -0.220152,-0.13688 -0.535321,-0.21947 -1.001488,-0.22117 z" />
        <path
           style="color:#000000;fill:#dc1c4b;stroke-width:0.800715;stroke-linecap:round;stroke-linejoin:round;stroke-miterlimit:1.5;-inkscape-stroke:none"
           d="m 39.914062,285.03906 c -1.117439,0 -2.029297,0.91183 -2.029296,2.0293 -10e-7,1.11746 0.911857,2.0293 2.029296,2.0293 1.11744,0 2.029298,-0.91184 2.029297,-2.0293 10e-7,-1.11747 -0.911857,-2.0293 -2.029297,-2.0293 z"
           id="path2085260" />
        <path
           id="path208780"
           style="color:#000000;fill:#b01d47;fill-opacity:1;stroke-width:3.02632;stroke-linecap:round;stroke-linejoin:round;stroke-miterlimit:1.5;-inkscape-stroke:none"
           d="m 154.86523,27.806641 c -0.69903,0.0014 -1.36784,0.297983 -1.83203,0.826171 l -0.64843,0.716797 -0.0586,-0.06641 c -1.26879,-1.449827 -3.55151,-1.449827 -4.82031,0 l -0.0684,0.07422 -0.0723,-0.07422 c -0.996,-1.1381 -2.62251,-1.380022 -3.88671,-0.726562 0.91517,3.211955 3.8788,5.576171 7.37695,5.576171 3.46912,0 6.41425,-2.324848 7.35547,-5.496093 -0.28698,0.167714 -0.55375,0.384013 -0.78516,0.648437 l -0.0586,0.06641 -0.66407,-0.716796 c -0.46212,-0.52286 -1.12499,-0.825983 -1.83007,-0.826172 z"
           transform="matrix(0.26458334,0,0,0.26458334,0,280.06666)" />
        <path
           style="color:#000000;fill:#d0ad9b;stroke-width:0.800715;stroke-linecap:round;stroke-linejoin:round;stroke-miterlimit:1.5;-inkscape-stroke:none"
           d="m 34.291016,282.35352 c -0.53994,0.14467 -0.908713,0.59122 -1.117188,1.07812 -0.208475,0.4869 -0.274547,1.02778 -0.154297,1.47656 l 1.220703,4.55078 a 0.26460996,0.26460996 0 0 0 0.314453,0.18946 l 3.167969,-0.72461 a 0.26460996,0.26460996 0 0 0 0.197266,-0.32617 c -0.27451,-1.02449 -0.974599,-3.64016 -1.25,-4.66797 -0.120251,-0.44879 -0.449052,-0.88375 -0.873047,-1.20117 -0.423995,-0.31743 -0.965919,-0.51968 -1.505859,-0.375 z"
           id="path2085278" />
        <path
           id="path232999"
           style="color:#000000;fill:#9a605c;fill-opacity:1;stroke-width:0.800715;stroke-linecap:round;stroke-linejoin:round;stroke-miterlimit:1.5;-inkscape-stroke:none"
           d="m 34.644397,282.3058 c -0.117046,8.7e-4 -0.235355,0.0159 -0.353465,0.0475 -0.39321,0.10536 -0.695203,0.37154 -0.911056,0.69608 0.116182,-0.0724 0.243354,-0.12979 0.381889,-0.16691 0.539938,-0.14468 1.081855,0.0577 1.50585,0.37517 0.423995,0.31742 0.753081,0.75217 0.873331,1.20096 0.268359,1.00152 0.929855,3.47299 1.218015,4.54856 l 0.363802,-0.0832 a 0.26460996,0.26460996 0 0 0 0.197403,-0.32659 c -0.27451,-1.02449 -0.974651,-3.64013 -1.250053,-4.66794 -0.12025,-0.44879 -0.449336,-0.88354 -0.873331,-1.20096 -0.331245,-0.24799 -0.734362,-0.42583 -1.152385,-0.42271 z" />
        <path
           id="path208775"
           style="color:#000000;fill:#9a605c;fill-opacity:1;stroke-width:3.02632;stroke-linecap:round;stroke-linejoin:round;stroke-miterlimit:1.5;-inkscape-stroke:none"
           d="m 130.01367,27.783203 c -0.14724,0.0048 -0.30956,0.02959 -0.50586,0.08203 l -2.03515,0.404297 1.93945,7.228516 a 1.0001006,1.0001006 0 0 0 1.1875,0.716797 l 11.97461,-2.738282 a 1.0001006,1.0001006 0 0 0 0.74609,-1.234374 c -0.17286,-0.645131 -0.53981,-2.016013 -0.78711,-2.939454 l -0.0547,0.06055 -0.0742,-0.08008 c -1.26543,-1.445972 -3.54707,-1.445972 -4.8125,0 l -0.0742,0.07422 -0.0664,-0.07422 c -1.26879,-1.449827 -3.55151,-1.449827 -4.82031,0 l -0.0586,0.05859 -0.66602,-0.730469 0.0742,0.0957 c -0.3887,-0.508195 -0.87189,-0.715279 -1.26953,-0.820312 -0.24853,-0.06567 -0.45186,-0.111592 -0.69727,-0.103516 z"
           transform="matrix(0.26458334,0,0,0.26458334,0,280.06666)" />
        <path
           style="color:#000000;fill:#fd913c;stroke-width:0.800715;stroke-linecap:round;stroke-linejoin:round;stroke-miterlimit:1.5;-inkscape-stroke:none"
           d="m 44.156311,288.52709 c 0.0032,-0.0566 -0.01186,-0.11275 -0.04297,-0.16015 l -0.166015,-0.25196 c -0.155424,-0.23689 -0.510595,-0.26211 -0.697266,-0.0488 l -0.304686,0.32812 -0.306639,-0.32812 c -0.182254,-0.20826 -0.516965,-0.20826 -0.699219,0 l -0.306639,0.32812 -0.45703,-0.5 c -0.05037,-0.0572 -0.122977,-0.09 -0.199219,-0.0898 l -6.6e-5,1.9e-4 c -0.07624,-1.6e-4 -0.14885,0.0326 -0.199218,0.0898 l -0.45703,0.5 -0.304686,-0.32812 c -0.182254,-0.20826 -0.518918,-0.20826 -0.701172,0 l -0.304686,0.32812 -0.306639,-0.32812 c -0.182254,-0.20826 -0.516965,-0.20826 -0.699219,0 l -0.306639,0.32812 -0.306639,-0.32812 c -0.182254,-0.20826 -0.516965,-0.20826 -0.699219,0 l -0.306639,0.32812 -0.304686,-0.32812 c -0.182254,-0.20826 -0.518918,-0.20826 -0.701172,0 l -0.306639,0.32812 -0.455077,-0.5 c -0.165527,-0.19284 -0.48127,-0.0642 -0.464843,0.18945 l 0.5,8.46094 c 0.0078,0.1408 0.124614,0.25076 0.265625,0.25 h 4.996093 c 0.293913,0 0.753736,-0.0799 1.236329,-0.20898 0.261668,0.0655 0.492565,0.20898 0.998046,0.20898 h 1.265625 c 0.139548,-2.2e-4 0.254939,-0.10878 0.263672,-0.24805 l 0.269532,-4.08593 c 6.3e-5,-0.003 6.3e-5,-0.007 0,-0.01 0.01553,-0.51895 0.08315,-1.18572 -0.111329,-1.7832 0.204212,-0.61224 0.262719,-1.08593 0.262719,-1.08593 z"
           id="path2085284"
           sodipodi:nodetypes="cccccccccccccccccccccccccccccscsccccccc" />
        <path
           id="path2085290"
           style="color:#000000;fill:#66342d;stroke-width:3.02632;stroke-linecap:round;stroke-linejoin:round;stroke-miterlimit:1.5;-inkscape-stroke:none"
           d="m 138.2168,13.564453 -4.3086,3.818359 c -0.59009,0.523314 -0.75089,1.355315 -0.52539,2.007813 0.22549,0.65246 0.86699,1.20854 1.6543,1.255859 l 5.26367,0.316407 c -0.64229,-2.398872 -1.32964,-4.962125 -1.70508,-6.363282 -0.0934,-0.348788 -0.22252,-0.694196 -0.3789,-1.035156 z"
           transform="matrix(0.26458334,0,0,0.26458334,0,280.06666)" />
        <path
           id="path2085296"
           style="color:#000000;fill:#66342d;stroke-width:3.02632;stroke-linecap:round;stroke-linejoin:round;stroke-miterlimit:1.5;-inkscape-stroke:none"
           d="m 140.08398,20.154297 -4.39062,3.886719 c -0.59022,0.523313 -0.74895,1.355314 -0.52344,2.007812 0.22553,0.652536 0.86691,1.208615 1.6543,1.25586 l 5.25781,0.314453 c -0.70228,-2.622738 -1.26478,-4.726263 -1.99805,-7.464844 z"
           transform="matrix(0.26458334,0,0,0.26458334,0,280.06666)" />
        <path
           style="color:#000000;fill:#d0e2ee;stroke-width:0.800715;stroke-linecap:round;stroke-linejoin:round;stroke-miterlimit:1.5;-inkscape-stroke:none"
           d="m 41.943359,282.11914 a 0.26460996,0.26460996 0 0 0 -0.324218,0.1875 l -0.257813,0.96484 a 0.26460996,0.26460996 0 0 0 0.185547,0.32422 l 2.896484,0.77539 a 0.26460996,0.26460996 0 0 0 0.324219,-0.18554 l 0.259766,-0.9668 a 0.26460996,0.26460996 0 0 0 -0.1875,-0.32422 z"
           id="path2085302" />
        <path
           id="path2085308"
           style="color:#000000;fill:#91a9d9;stroke-width:3.02632;stroke-linecap:round;stroke-linejoin:round;stroke-miterlimit:1.5;-inkscape-stroke:none"
           d="m 156.58398,11.146484 -0.23242,0.869141 -2.34961,5.167969 c -0.0238,0.052 -0.0404,0.105025 -0.0547,0.158203 l -0.26368,0.960937 c 5.06106,1.357417 10.34202,2.779619 14.70313,3.945313 l 0.26758,-1 c 0.0113,-0.04237 0.0159,-0.08543 0.0215,-0.128906 l 0.54688,-5.63086 0.23632,-0.886719 c -4.6452,-1.247174 -8.75025,-2.348439 -12.875,-3.455078 z"
           transform="matrix(0.26458334,0,0,0.26458334,0,280.06666)"
           sodipodi:nodetypes="ccccccccccc" />
        <path
           id="path2085318"
           style="color:#000000;fill:#50b86b;stroke-width:3.02632;stroke-linecap:round;stroke-linejoin:round;stroke-miterlimit:1.5;-inkscape-stroke:none"
           d="m 147.9707,19.369557 -0.80468,1.866771 c -0.50307,0.857009 0.41627,1.843679 1.30664,1.402344 l 0.99609,-0.501953 0.49414,0.998047 c 0.36637,0.745036 1.42855,0.745036 1.79492,0 l 0.49414,-0.998047 0.9961,0.501953 c 0.89037,0.441335 1.80971,-0.545335 1.30664,-1.402344 L 153.75,19.361745 c 0,0 -1.24838,-0.570556 -2.88965,-0.568422 -1.64127,0.0021 -2.88965,0.576234 -2.88965,0.576234 z"
           transform="matrix(0.26458334,0,0,0.26458334,0,280.06666)"
           sodipodi:nodetypes="cccccccccczc" />
        <path
           id="path2085340"
           style="color:#000000;fill:#feae72;stroke-width:3.02632;stroke-linecap:round;stroke-linejoin:round;stroke-miterlimit:1.5;-inkscape-stroke:none"
           d="m 133.03053,63.224767 -0.0598,-1.062653 -1.89062,-31.978515 c -0.0296,-0.511671 -0.44113,-0.918188 -0.95313,-0.941406 l -1e-5,-5e-6 c -0.0812,-0.0034 -0.16255,0.0032 -0.24218,0.01953 l -4.72461,0.943359 c -0.47631,0.09858 -0.81263,0.525567 -0.79688,1.011719 L 125.30078,62.25 c 0.0221,1.046203 1.43292,1.36003 1.89649,0.421875 l 1.26953,-2.539063 2.79882,2.796876 c 0.26515,0.264139 0.48579,0.295079 0.85743,0.295079 z"
           sodipodi:nodetypes="cccssccccccccc"
           transform="matrix(0.26458334,0,0,0.26458334,0,280.06666)" />
        <path
           id="path251176"
           style="color:#000000;fill:#6788cb;fill-opacity:1;stroke-width:0.800715;stroke-linecap:round;stroke-linejoin:round;stroke-miterlimit:1.5;-inkscape-stroke:none"
           d="m 41.429513,283.01583 -0.0615,0.22996 -0.172082,0.37879 c 0.785917,0.21212 1.559343,0.42538 2.406275,0.655 0.367359,0.0996 0.634914,0.48662 0.598033,0.86546 -0.02259,0.23198 -0.04504,0.46398 -0.06754,0.69594 0.13957,0.0374 0.286091,0.0764 0.419613,0.11214 l 0.0708,-0.26458 c 0.003,-0.0112 0.0042,-0.0226 0.0057,-0.0341 l 0.144695,-1.48983 0.06253,-0.23461 c -1.229042,-0.32998 -2.31517,-0.62136 -3.40651,-0.91416 z" />
      </g>
      <path
         id="path231775"
         style="color:#000000;fill:#000000;stroke-width:3.02632;stroke-linecap:round;stroke-linejoin:round;stroke-miterlimit:1.5;-inkscape-stroke:none"
         d="m 150.60156,10.726573 c 0.10303,-0.7827774 -0.32639,-1.6919711 -1.27734,-2.2832026 -0.74789,-0.4650117 -1.78523,-0.7609393 -3.26563,-0.8203125 0.46435,-1.4906004 1.64329,-4.0223836 4.41602,-4.8945313 0.52327,-0.1666771 0.81322,-0.7254394 0.65039,-1.25 -0.13321,-0.427526 -0.52759,-0.70236817 -0.95312,-0.70312498 v -1.1e-5 c -0.0982,-1.7464e-4 -0.19813,0.0144565 -0.29688,0.0449219 -2.01057,0.63238628 -3.36748,1.88787488 -4.2793,3.20312498 l -0.0469,-1.1054687 c -0.0253,-0.5493922 -0.48956,-0.9750841 -1.03906,-0.953125 -0.54936,0.026457 -0.97509,0.4895569 -0.95313,1.0390624 l 0.043,1.015625 C 142.7754,2.9729494 141.66896,1.9683408 140.20312,1.3125 c -0.50479,-0.2276362 -1.09846,-0.00173 -1.32421,0.5039062 -0.22298,0.5048286 0.005,1.0948568 0.50976,1.3183594 1.30714,0.5848504 2.2741,1.6009369 2.96485,2.6171875 -0.52305,-0.1035472 -0.89454,-0.1210937 -0.89454,-0.1210937 -0.54987,-0.022677 -1.01522,0.4033549 -1.04101,0.953125 -0.0272,0.549959 0.39546,1.0191588 0.94531,1.0488281 0,0 0.60134,0.028644 1.23242,0.2421875 -1.02211,0.2108337 -1.77367,0.5403504 -2.33398,0.9589844 -0.89761,0.6706771 -1.24329,1.6166166 -1.0625,2.3964846 l 2.32226,10.011719 c 0.12669,0.535029 0.66146,0.867466 1.19727,0.74414 0.53799,-0.12359 0.8731,-0.659174 0.75,-1.197266 l -2.31641,-9.99414 c 0.009,-0.04681 0.0604,-0.173821 0.3086,-0.359375 0.41099,-0.307276 1.41271,-0.724197 3.37695,-0.8085939 1.96435,-0.084283 3.00072,0.2451998 3.43555,0.5156249 0.2658,0.16519 0.3275,0.28978 0.33984,0.337891 l -0.22461,1.714843 -3.43359,0.148438 c -0.54936,0.02646 -0.97509,0.489557 -0.95313,1.039062 0.0216,0.552227 0.48685,0.982973 1.03907,0.960938 L 148.12305,14.210938 147.88867,16 l -1.82422,0.07813 c -0.5517,0.02221 -0.98099,0.487355 -0.95898,1.039063 0.0211,0.554865 0.49023,0.98628 1.04492,0.960937 l 2.66211,-0.115234 c 0.52802,-0.0205 0.96094,-0.448145 0.96094,-0.978513 z m 7.57813,-3.0000105 c -0.41963,0.037013 -0.77108,0.3330087 -0.87891,0.7402344 l -0.94922,3.5488281 -2.34961,5.167969 c -0.25657,0.561768 0.0523,1.219519 0.64844,1.380859 l 11.80469,3.166016 -1.44727,5.419922 c -0.14326,0.531624 0.17017,1.079041 0.70117,1.224609 0.53399,0.142731 1.0825,-0.174825 1.22461,-0.708984 l 1.71289,-6.384766 c 0.0142,-0.05314 0.024,-0.107359 0.0293,-0.162109 l 0.002,-0.01953 v -0.002 l 0.54493,-5.607422 0.95898,-3.576172 C 170.32558,11.3794 170.00775,10.829608 169.47266,10.6875 L 158.52539,7.7578125 c -0.11253,-0.030487 -0.22953,-0.041063 -0.3457,-0.03125 z m -27.24024,0.7363281 c -0.44238,0.0033 -0.88953,0.06007 -1.33593,0.1796875 -2.04072,0.5467843 -3.43472,2.2359199 -4.22266,4.0761719 -0.78794,1.840252 -1.03652,3.883902 -0.58203,5.580078 l 2.42773,9.050781 c 0.14226,0.534426 0.69242,0.850276 1.22656,0.707032 0.53441,-0.142111 0.85027,-0.690487 0.70704,-1.22461 l -2.42774,-9.050781 c -0.29034,-1.083515 -0.1311,-2.813179 0.49414,-4.273438 0.62524,-1.46022 1.65012,-2.60407 2.89453,-2.9375 1.24442,-0.333354 2.70692,0.139886 3.97852,1.091797 1.22072,0.913937 2.18896,2.257517 2.52148,3.322266 l -2.71289,2.398437 c -0.59008,0.523314 -0.75089,1.355315 -0.52539,2.007813 0.22549,0.65246 0.867,1.20854 1.6543,1.255859 l 3.15625,0.185547 c 0.0718,0.268059 0.14301,0.534755 0.21484,0.802735 l -2.71484,2.40625 c -0.59022,0.523313 -0.74895,1.355277 -0.52344,2.007812 0.22553,0.652536 0.86691,1.208615 1.6543,1.25586 l 3.875,0.228515 c 0.55004,0.03024 1.02115,-0.387579 1.05469,-0.9375 0.006,-0.109657 -0.006,-0.215808 -0.0332,-0.316406 h 0.004 c -1.03752,-3.872088 -2.08802,-7.795051 -3.12891,-11.679688 -0.45449,-1.696214 -1.69828,-3.339364 -3.30078,-4.539062 -1.25195,-0.9372934 -2.77554,-1.6094312 -4.35547,-1.5976564 z m 28.03711,1.4863282 9.01367,2.4140622 -0.46093,1.720703 -9.01563,-2.419922 z m -10.36133,0.5351562 c 0.005,0.02282 -4.5e-4,0.02277 0,0 z m -7.46484,0.316406 c 0.001,0.01869 -0.003,0.01919 0,0 z m -8.80859,1.917969 c -0.26436,-0.0015 -0.51857,0.101711 -0.70703,0.287109 l -0.94532,0.945313 c -0.39303,0.39095 -0.39303,1.027019 0,1.417969 0.39006,0.387829 1.0201,0.387829 1.41016,0 l 0.94336,-0.945313 c 0.39303,-0.39095 0.39303,-1.027019 0,-1.417969 -0.18702,-0.183969 -0.43883,-0.287081 -0.70117,-0.287109 z m 25.50586,0.841797 9.30859,2.494141 -0.36328,3.699218 -10.48828,-2.8125 z m 1.44531,1.279297 c -0.45322,-2.74e-4 -0.84995,0.30429 -0.9668,0.742187 -0.14273,0.533995 0.17483,1.082503 0.70899,1.22461 l 0.9082,0.24414 c 0.53399,0.142731 1.0825,-0.174825 1.22461,-0.708984 0.14286,-0.533399 -0.17366,-1.081631 -0.70703,-1.224609 l -0.90821,-0.244141 c -0.0848,-0.0224 -0.17209,-0.03357 -0.25976,-0.0332 z m -7.80664,1.496094 c -0.2471,0.01064 -0.48324,0.112424 -0.66016,0.287109 -0.67671,0.676724 -0.85028,1.517207 -0.92969,2.15625 -0.003,0.02662 -0.007,0.05192 -0.01,0.07813 -0.93432,0.119326 -1.85692,0.411104 -2.71484,0.880859 -2.80496,1.535925 -4.3623,4.65928 -3.9043,7.824219 0.0845,0.579654 0.62368,0.980509 1.20312,0.894531 0.57623,-0.08558 0.97508,-0.620585 0.89258,-1.197265 -0.273,-1.886645 0.43812,-3.744778 1.82813,-4.966797 0.25805,0.38653 0.77465,0.59688 1.28125,0.345703 l 0.99609,-0.501953 0.49414,0.998047 c 0.3668,0.743508 1.42813,0.743508 1.79492,0 l 0.49414,-0.998047 0.9961,0.501953 c 0.50491,0.250343 1.01844,0.04228 1.27734,-0.341797 1.72774,1.519683 2.34462,3.939063 1.54297,6.099609 -0.20288,0.546298 0.0738,1.153846 0.61914,1.359375 0.54854,0.206547 1.16052,-0.07186 1.36523,-0.621093 1.11247,-2.998186 0.24407,-6.383889 -2.17578,-8.47461 -1.1462,-0.990291 -2.5325,-1.594588 -3.96875,-1.792968 0.0676,-0.358202 0.20484,-0.695073 0.33594,-0.826172 0.3926,-0.390879 0.3926,-1.02709 0,-1.417969 -0.18871,-0.186331 -0.44393,-0.288999 -0.70898,-0.287109 -0.0166,-1.07e-4 -0.0324,-7.1e-4 -0.0488,0 z m -14.28516,0.800781 c 0.14856,0.554322 0.29657,1.107147 0.44531,1.662109 l -2.16601,-0.130859 z m -4.85937,4.078125 c -0.26548,5.58e-4 -0.51985,0.10666 -0.70703,0.294922 l -0.94532,0.945312 c -0.38783,0.390056 -0.38783,1.0201 0,1.410156 0.39006,0.387829 1.0201,0.387829 1.41016,0 l 0.94336,-0.945312 c 0.38783,-0.390056 0.38783,-1.0201 0,-1.410156 -0.18575,-0.186833 -0.43772,-0.292817 -0.70117,-0.294922 z m 6.64648,2.583984 c 0.14813,0.552677 0.29756,1.106872 0.44531,1.658203 l -2.16797,-0.130859 z m 26.79883,15.976565 c 0.63589,-1.97858 0.83968,-3.441685 0.88185,-3.783203 l 0.21779,-3.960938 c 0.0244,-0.223377 -0.0267,-0.457829 -0.16016,-0.660156 l -0.62695,-0.951172 c -0.5874,-0.895597 -1.92929,-0.991531 -2.63477,-0.185547 l -1.07812,1.240234 c -0.0507,0.05783 -0.0978,0.05783 -0.14844,0 l -1.08398,-1.240234 c -0.68879,-0.7872 -1.9538,-0.7872 -2.64258,0 l -1.08594,1.240234 c -0.0507,0.05783 -0.0958,0.05783 -0.14648,0 l -1.6543,-1.888671 c -0.19037,-0.216189 -0.46379,-0.3406 -0.75195,-0.339844 h -0.002 c -0.28815,-6.05e-4 -0.56158,0.123655 -0.75195,0.339844 l -1.6543,1.888671 c -0.0507,0.05783 -0.0958,0.05783 -0.14648,0 l -1.07813,-1.240234 c -0.68878,-0.7872 -1.9616,-0.7872 -2.65039,0 l -1.07812,1.240234 c -0.0507,0.05783 -0.0958,0.05783 -0.14649,0 l -1.08593,-1.240234 c -0.68879,-0.7872 -1.9538,-0.7872 -2.64258,0 l -1.08594,1.240234 c -0.0507,0.05783 -0.0958,0.05783 -0.14648,0 l -1.08594,-1.240234 c -0.68879,-0.7872 -1.95379,-0.7872 -2.64258,0 l -1.08398,1.240234 c -0.0507,0.05783 -0.0978,0.05783 -0.14844,0 l -1.07813,-1.240234 c -0.68878,-0.7872 -1.9616,-0.7872 -2.65039,0 l -1.08398,1.240234 c -0.0507,0.05783 -0.0978,0.05783 -0.14844,0 l -1.64648,-1.888671 -0.002,0.002 c -0.1962,-0.224218 -0.48822,-0.360245 -0.80856,-0.341821 -0.0477,0.0026 -0.095,0.01055 -0.1406,0.0195 v 5e-6 -0.0039 l -4.72461,0.943359 c -0.47631,0.09827 -0.8124,0.525596 -0.79688,1.011719 L 125.30078,62.25 c 0.0219,1.047118 1.43389,1.361541 1.89649,0.421875 l 1.26953,-2.539063 2.73632,2.734376 c 0.18504,0.220511 0.46079,0.359085 0.76954,0.357421 h 18.88281 c 1.13347,0 2.89987,-0.237397 4.77344,-0.748047 0.94685,0.258221 1.85286,0.75 3.67187,0.75 h 4.7832 c 0.52743,-8.31e-4 0.96504,-0.411125 0.99805,-0.9375 l 1.01758,-15.462889 c 0.0612,-2.064374 0.56459,-4.722539 -0.3125,-7.05078 z m -36.63867,-8.326174 1.66601,28.203125 -1.91211,-1.91211 c -0.48226,-0.483061 -1.29574,-0.352581 -1.60156,0.257813 L 127.18164,58.234375 126.38477,32 Z m 5.88867,0.314453 0.90039,1.02539 c 0.82429,0.942048 2.33586,0.942048 3.16016,0 l 0.90039,-1.02539 0.90039,1.02539 c 0.82429,0.942048 2.33586,0.942048 3.16015,0 l 0.90039,-1.02539 0.9004,1.02539 c 0.82429,0.942048 2.33391,0.942048 3.1582,0 l 0.89453,-1.02539 0.90039,1.02539 c 0.82429,0.942048 2.33391,0.942048 3.1582,0 l 0.90235,-1.02539 0.90039,1.02539 c 0.82429,0.942048 2.33391,0.942048 3.1582,0 l 0.90039,-1.02539 0.90039,1.02539 c 0.82429,0.942048 2.33587,0.942048 3.16016,0 l 0.7832,-0.90039 0.20313,0.308594 -0.20118,3.601562 c -0.0465,0.361261 -0.76846,5.567957 -4.21093,9.871094 -0.34812,0.432008 -0.278,1.064838 0.15625,1.410156 0.43149,0.34857 1.06425,0.279334 1.41015,-0.154297 0.89452,-1.118159 1.62019,-2.284852 2.20899,-3.421875 -0.0222,1.049147 -0.11036,2.169658 -0.14258,3.246094 l -0.95313,14.474609 h -3.8457 c -0.0788,0 -0.15288,-0.0017 -0.22656,-0.0039 0.62744,-0.297793 1.23097,-0.629858 1.78516,-1 0.45937,-0.307703 0.58186,-0.929789 0.27343,-1.388672 -0.14843,-0.218596 -0.37734,-0.369564 -0.63672,-0.419922 -0.25792,-0.05021 -0.52523,0.0031 -0.74414,0.148438 -2.532,1.691112 -7.34007,2.664062 -8.89648,2.664062 h -17.94531 l -1.66211,-28.183593 c 0.85186,0.680341 2.14611,0.596684 2.88867,-0.251954 z"
         transform="matrix(0.26458334,0,0,0.26458334,0,280.06666)"
         sodipodi:nodetypes="cscccssccccccccccccccscccccscccccccccccccccccccccccccccccccccscscccccsccccsccccscccccssssccccccccccccccccccccccsccccccsscccccccccccccccccccsccccccccccccccccsccccccccccccccccccssccccccccccccccccccccccccccccccccscscccccccccccccccccccccccccccccccccccccscccccsccccc" />
    </g>
  </g>
</svg>
